<svg width="60" height="60" viewBox="0 0 60 60" fill="none" xmlns="http://www.w3.org/2000/svg">
<g clip-path="url(#clip0_26_182)">
<path d="M45.6077 25.1181C46.1559 26.1623 46.3398 27.2762 46.3234 28.4284H38.403C38.8841 25.3289 40.1584 23.4386 42.6868 23.4954C44.1574 23.4954 45.131 24.037 45.6077 25.1181ZM16.4646 29.3371H23.2148L19.7099 16.0961C19.2697 19.091 17.7262 24.1937 16.4646 29.3371ZM60 0V60H0V0H60ZM32.1578 42.8377L22.8783 11.5526H16.4646C16.4646 12.2463 16.4201 13.0029 16.3348 13.3051C16.2476 13.6093 16.2049 13.8893 16.2049 14.1489L8.00813 42.8377H12.8578L15.1664 34.0104H24.2535L26.7946 42.8377H32.1578ZM51.1248 28.688C51.1248 26.6109 50.5182 24.534 49.3075 22.457C48.0946 20.38 45.9322 19.3414 42.8167 19.3414C39.7864 19.3414 37.4295 20.5321 35.742 22.9113C32.5586 27.1093 32.2266 35.0391 35.6121 39.6572C37.2124 42.0384 39.8736 43.2272 43.5956 43.2272C45.6339 43.222 47.5774 42.9762 49.3073 42.1886C49.5093 41.9807 49.5614 41.882 49.567 41.5395V38.0345C49.5612 37.7914 49.4279 37.7814 49.1776 37.775C46.6446 39.0129 42.9628 38.9688 41.1001 37.8948C39.3669 36.8955 38.348 34.8069 38.403 32.3229H45.8024C47.1006 32.3229 48.1391 32.3025 48.9179 32.258C49.6969 32.2153 50.2586 32.1504 50.6054 32.0632C50.6907 32.0632 50.7557 32.0428 50.8002 31.9983L50.995 31.8035C50.995 31.5439 51.0152 31.1341 51.0599 30.5702C51.1024 30.0084 51.1248 29.3817 51.1248 28.688Z" fill="#292828"/>
</g>
<defs>
<clipPath id="clip0_26_182">
<rect width="60" height="60" fill="white"/>
</clipPath>
</defs>
</svg>
