<svg width="60" height="60" viewBox="0 0 60 60" fill="none" xmlns="http://www.w3.org/2000/svg">
<g clip-path="url(#clip0_26_178)">
<path fill-rule="evenodd" clip-rule="evenodd" d="M22.479 32.3438H29.6841C28.4438 28.125 27.2223 24.225 26.0204 20.2612C24.8541 24.2391 23.671 28.125 22.479 32.3438ZM58.1776 0.46875H1.3468C0.322113 0.46875 0.468831 0.691875 0.468831 1.68047V58.5839C0.468831 59.5716 0.322113 59.5312 1.27461 59.5312H58.2498C59.2018 59.5312 59.5313 59.5716 59.5313 58.5834V1.75266C59.5313 0.691875 59.2023 0.46875 58.1776 0.46875ZM36.2335 45C35.4662 45 34.696 44.9377 33.9324 44.9925C33.3816 45.0338 33.1974 44.8022 33.0507 44.3241C32.341 42.0127 31.5868 39.7022 30.8766 37.3913C30.7337 36.9263 30.5293 36.7566 30.0254 36.7627C27.4365 36.7927 24.8462 36.7898 22.2568 36.7594C21.7116 36.7528 21.4609 36.8981 21.3052 37.4391C20.6462 39.7378 19.9252 42.0178 19.2591 44.3142C19.1148 44.812 18.8954 44.9859 18.3666 44.9723C16.8113 44.9334 15.2537 44.9573 13.5507 44.9573C14.0002 43.53 14.408 42.21 14.8299 40.8956C17.4146 32.8331 20.0082 24.7706 22.5741 16.703C22.7532 16.1414 23.0021 15.9684 23.5787 15.9811C25.4002 16.0214 27.2232 15.9914 29.0457 15.9811C29.3865 15.9787 29.619 15.9989 29.7437 16.3861C32.7929 25.8155 35.8529 35.303 38.9101 44.7314C38.9232 44.7741 38.9148 45 38.9218 45H36.2335ZM45.9376 45H40.3126V23.9062H45.9376V45ZM42.961 21.0605C41.2431 21.0581 40.0131 19.8755 40.0013 18.2152C39.9901 16.5595 41.2702 15.3281 43.0041 15.3263C44.7516 15.3244 45.9831 16.5155 45.9966 18.2189C46.0088 19.8806 44.7465 21.0633 42.961 21.0605Z" fill="#292828"/>
</g>
<defs>
<clipPath id="clip0_26_178">
<rect width="60" height="60" fill="white"/>
</clipPath>
</defs>
</svg>
