<svg width="60" height="60" viewBox="0 0 60 60" fill="none" xmlns="http://www.w3.org/2000/svg">
<path d="M9.22021 12.1875L13.0026 54.6061L29.9741 59.317L46.993 54.6L50.7796 12.1875H9.22021ZM41.6624 35.8537L40.5608 46.1156L40.5651 46.9945L29.9999 49.9453L29.9915 49.9528L19.3419 47.0348L18.6215 38.9062H23.8438L24.2141 43.0153L30.0018 44.5598L29.9999 44.5669V44.5519L35.8096 42.9136L36.4227 36.0938H24.2788L24.1747 34.9898L23.9376 32.3428L23.8133 30.9375H36.8849L37.3602 25.7812H17.451L17.3465 24.5677L17.1093 21.7411L16.9851 20.1562H43.0462L42.921 21.7191L41.6624 35.8537ZM41.7187 6.73781L38.3676 2.8125H41.7187V0.46875H34.2187V2.51391L38.1515 6.09375H34.2187V8.4375H41.7187V6.73781ZM32.8124 6.73781L29.6216 2.8125H32.8124V0.46875H25.7812V2.51391L29.406 6.09375H25.7812V8.4375H32.8124V6.73781ZM24.3749 6.09375H20.6249V2.8125H24.3749V0.46875H17.8124V8.4375H24.3749V6.09375Z" fill="#292828"/>
</svg>
