<svg width="60" height="60" viewBox="0 0 60 60" fill="none" xmlns="http://www.w3.org/2000/svg">
<g clip-path="url(#clip0_26_180)">
<path d="M31.09 31.5626C30.9446 26.8825 34.233 23.1782 39.0074 24.424V38.831C34.2497 39.9804 30.8893 37.1523 31.09 31.5626ZM0 0V60H60V0H0ZM20.8364 43.2438H15.7746V11.9641H20.8364V43.2438ZM36.671 43.6331C30.8941 43.8 25.7855 40.1361 25.8983 31.8221C25.989 25.1407 30.1526 19.1411 39.0074 19.7516V11.9641H44.199V40.0639C44.199 40.5405 44.2424 41.2226 44.3588 41.7881C42.3654 42.8918 39.7829 43.6132 36.671 43.6331Z" fill="#292828"/>
</g>
<defs>
<clipPath id="clip0_26_180">
<rect width="60" height="60" fill="white"/>
</clipPath>
</defs>
</svg>
