<svg width="60" height="60" viewBox="0 0 60 60" fill="none" xmlns="http://www.w3.org/2000/svg">
<g clip-path="url(#clip0_26_176)">
<path fill-rule="evenodd" clip-rule="evenodd" d="M60 60H0V0H60V60ZM47.6262 25.4313V20.7778C46.8598 20.4366 42.471 19.1811 39.0037 20.5042C34.0092 22.4099 34.1886 28.1509 36.0839 30.4041C38.5396 33.3234 44.6482 34.4119 43.6486 37.2773C43.131 38.7612 40.7145 39.0195 38.584 38.5213C36.6 38.0575 34.875 36.8823 34.875 36.8823V41.8095C34.875 41.8095 36.5801 42.7601 38.6728 42.9863C41.3556 43.2761 44.7184 42.7288 46.4031 41.2314C49.4019 38.5657 49.8625 32.6606 44.1795 29.9186C39.4504 27.6369 39.5282 26.9857 39.5613 25.8154C39.6059 24.2479 42.897 23.2829 47.6262 25.4313ZM22.1238 12.3721C26.0586 12.5089 31.8413 14.3224 31.8413 22.0553C31.8413 29.7881 24.7662 32.3256 18.3104 31.7727V42.7219H13.5012V12.4746C13.5012 12.4746 18.1889 12.2352 22.1238 12.3721ZM23.3727 26.9824C25.4464 26.2257 26.7943 24.5991 26.7943 22.0723C26.7943 19.3932 25.4227 17.5791 23.3248 17.0666C21.053 16.5115 18.3104 16.8387 18.3104 16.8387V27.3907C18.3104 27.3907 22.1067 27.4444 23.3727 26.9824Z" fill="#292828"/>
</g>
<defs>
<clipPath id="clip0_26_176">
<rect width="60" height="60" fill="white"/>
</clipPath>
</defs>
</svg>
